<svg xmlns="http://www.w3.org/2000/svg" version="1.1" xmlns:xlink="http://www.w3.org/1999/xlink" xmlns:svgjs="http://svgjs.dev/svgjs" width="1000" height="625" viewBox="0 0 1000 625"><g transform="matrix(1,0,0,1,0,0)"><svg viewBox="0 0 576 360" data-background-color="#ffffff" preserveAspectRatio="xMidYMid meet" height="625" width="1000" xmlns="http://www.w3.org/2000/svg" xmlns:xlink="http://www.w3.org/1999/xlink"><defs></defs><g id="tight-bounds" transform="matrix(1,0,0,1,0,0)"><svg viewBox="0 0 576 360" height="360" width="576"><g><svg></svg></g><g><svg viewBox="0 0 576 360" height="360" width="576"><g><path d="M132.115 90l155.885-90 155.885 90v180l-155.885 90-155.885-90z" fill="#61777f" data-fill-palette-color="tertiary"></path></g><g transform="matrix(1,0,0,1,216.46428521750644,99)"><svg viewBox="0 0 143.0714295649871 162" height="162" width="143.0714295649871"><g><svg viewBox="0 0 160.99884 182.29923444046457" height="162" width="143.0714295649871"><g><svg viewBox="0 0 160.99884 182.29923444046457" height="182.29923444046457" width="160.99884"><g><svg viewBox="0 0 160.99884 182.29923444046457" height="182.29923444046457" width="160.99884"><g><svg viewBox="0 0 160.99884 160.99884" height="160.99884" width="160.99884"><g transform="matrix(1,0,0,1,42.52450966503838,63.115046016405)"><svg viewBox="0 0 75.94982066992324 34.768747967189995" height="34.768747967189995" width="75.94982066992324"><g><svg xmlns="http://www.w3.org/2000/svg" xmlns:xlink="http://www.w3.org/1999/xlink" version="1.1" x="0" y="0" viewBox="0.25533245404147753 0 74.8996614312309 34.288000000000004" enable-background="new 0 0 75.155 34.762" xml:space="preserve" width="75.94982066992324" height="34.768747967189995" class="icon-yl-0" data-fill-palette-color="quaternary" id="yl-0"><g fill="#ffffff" data-fill-palette-color="quaternary"><path d="M68.951 30.193c0.043-0.117 0.074-0.237 0.106-0.357 0.016-0.054 0.029-0.108 0.042-0.163 0.024-0.102 0.046-0.205 0.067-0.309 0.016-0.093 0.027-0.183 0.04-0.274 0.012-0.081 0.021-0.159 0.031-0.241 0.018-0.18 0.027-0.363 0.027-0.549-0.004-3.307-2.68-5.979-5.984-5.986-3.309 0.008-5.98 2.68-5.988 5.986 0 0.186 0.01 0.369 0.027 0.549 0.009 0.082 0.021 0.16 0.032 0.241 0.011 0.092 0.024 0.182 0.042 0.274 0.018 0.104 0.041 0.207 0.065 0.309 0.012 0.055 0.025 0.109 0.042 0.163 0.031 0.12 0.065 0.24 0.105 0.357 0 0.001 0 0.001 0 0.003l0 0c0.794 2.376 3.03 4.086 5.674 4.092 2.642-0.006 4.876-1.716 5.67-4.092l0 0C68.951 30.194 68.951 30.194 68.951 30.193z" fill="#ffffff" data-fill-palette-color="quaternary"></path><path d="M14.303 22.314c-3.309 0.007-5.981 2.679-5.989 5.985 0.004 0.737 0.144 1.442 0.39 2.096 0.852 2.27 3.029 3.887 5.6 3.892 2.566-0.005 4.745-1.622 5.599-3.892 0.245-0.653 0.384-1.358 0.386-2.096C20.281 24.993 17.606 22.321 14.303 22.314z" fill="#ffffff" data-fill-palette-color="quaternary"></path><path d="M32.611 21.724h-2.807l1.628-2.285L41.986 4.635c-1.825 0.087-3.645 0.237-5.415 0.469-2.33 0.306-7.435 2.029-14.908 6.565-4.138 2.513-11.059 0.919-15.773 4.523-4.288 3.28-5.667 5.452-5.542 7.057 0.156 2.022 1.016 2.558 0.092 3.479-1.307 1.305 4.684 3.512 6.654 3.512h0.46c-0.176-0.616-0.276-1.267-0.276-1.941 0-3.878 3.144-7.023 7.025-7.023 3.878 0 7.021 3.146 7.021 7.023 0 0.675-0.102 1.325-0.277 1.941h3.419c1.087 0 11.58-0.151 13.545-0.18l1.537-8.338H32.611z" fill="#ffffff" data-fill-palette-color="quaternary"></path><path d="M71.643 15.04c-4.438-3.545-6.606-6.354-7.55-7.816 1.147 0 1.687-0.406 1.774-0.531 0.259-0.361-8.312-1.972-18.168-2.138l-1.564 8.483h6.937 2.807l-1.629 2.285L43.743 30.057h12.742c-0.143-0.562-0.229-1.149-0.229-1.757 0.002-3.879 3.145-7.022 7.025-7.023 3.876 0.001 7.021 3.145 7.021 7.023 0 0.607-0.085 1.195-0.231 1.757h0.788c0 0 1.846-1.663 2.68-1.663C75.108 28.394 76.911 19.245 71.643 15.04z" fill="#ffffff" data-fill-palette-color="quaternary"></path><polygon points="46.229,4.541 47.067,0 43.81,4.569 32.611,20.276 41.284,20.276 39.48,30.057 38.612,34.762 41.967,30.057    53.071,14.483 44.396,14.483  " fill="#ffffff" data-fill-palette-color="quaternary"></polygon></g></svg></g></svg></g><path d="M18.317 59.695v0c-0.323 0.964-0.756 1.699-1.3 2.206-0.55 0.505-1.207 0.824-1.972 0.957-0.771 0.131-1.665 0.1-2.681-0.093-1.016-0.194-2.161-0.513-3.434-0.959v0c-1.261-0.441-2.343-0.908-3.247-1.4-0.905-0.492-1.612-1.046-2.122-1.661-0.506-0.606-0.801-1.312-0.886-2.116-0.078-0.802 0.064-1.723 0.428-2.764v0c0.206-0.59 0.429-1.166 0.669-1.73 0.246-0.562 0.507-1.097 0.783-1.605 0.277-0.509 0.556-0.985 0.838-1.428v0l1.58 0.553c-0.134 0.263-0.309 0.631-0.524 1.105-0.217 0.48-0.446 1.013-0.685 1.597-0.24 0.585-0.467 1.185-0.682 1.799v0c-0.336 0.96-0.404 1.759-0.206 2.399 0.199 0.64 0.689 1.209 1.472 1.708 0.791 0.495 1.899 0.992 3.322 1.49v0c1.135 0.397 2.095 0.673 2.878 0.827 0.786 0.148 1.438 0.176 1.956 0.083 0.518-0.093 0.944-0.324 1.278-0.694 0.34-0.367 0.625-0.88 0.855-1.538v0c0.219-0.627 0.364-1.281 0.432-1.96 0.067-0.674 0.102-1.256 0.105-1.748v0l-4.008-1.402-1.178 3.367-1.58-0.552c0.05-0.285 0.129-0.62 0.235-1.006 0.1-0.387 0.215-0.794 0.343-1.221 0.128-0.427 0.266-0.85 0.413-1.27v0c0.136-0.389 0.266-0.741 0.39-1.056 0.124-0.315 0.248-0.599 0.372-0.852v0l8.175 2.86-0.54 1.543-1.152-0.055c0.074 0.533 0.108 1.22 0.101 2.063 0 0.845-0.143 1.696-0.428 2.553zM30.148 38.496l-3.519 4.957c-0.392 0.553-0.825 0.979-1.299 1.278-0.468 0.303-0.987 0.42-1.556 0.349-0.568-0.061-1.196-0.336-1.884-0.824v0l-10.312-7.321 1.275-1.796 10.044 7.131c0.379 0.269 0.721 0.414 1.024 0.434 0.298 0.016 0.557-0.056 0.778-0.218 0.224-0.167 0.425-0.375 0.602-0.624v0l3.214-4.526zM40.187 29.744v0c-0.82 0.656-1.6 1.153-2.342 1.492-0.746 0.333-1.496 0.449-2.251 0.346-0.76-0.098-1.579-0.485-2.459-1.159-0.871-0.673-1.852-1.692-2.944-3.057v0c-1.088-1.359-1.867-2.54-2.337-3.542-0.469-1.012-0.672-1.909-0.609-2.691 0.054-0.783 0.322-1.5 0.806-2.151 0.479-0.656 1.129-1.312 1.948-1.968v0c0.835-0.668 1.628-1.167 2.379-1.494 0.746-0.333 1.505-0.438 2.275-0.315 0.767 0.118 1.59 0.519 2.469 1.202 0.875 0.678 1.856 1.697 2.944 3.057v0c1.092 1.364 1.871 2.545 2.337 3.542 0.47 1.002 0.67 1.885 0.599 2.647-0.07 0.763-0.35 1.471-0.838 2.127-0.493 0.65-1.152 1.305-1.977 1.964zM38.967 28.219v0c0.586-0.469 1.035-0.935 1.346-1.396 0.315-0.457 0.467-0.953 0.456-1.488-0.012-0.535-0.213-1.165-0.606-1.89-0.388-0.719-0.991-1.59-1.809-2.611v0c-0.859-1.074-1.608-1.887-2.247-2.44-0.634-0.548-1.206-0.885-1.717-1.013-0.515-0.133-1.025-0.09-1.531 0.128-0.502 0.223-1.046 0.569-1.633 1.038v0c-0.555 0.444-0.994 0.885-1.316 1.322-0.318 0.442-0.475 0.933-0.469 1.472 0.002 0.534 0.196 1.175 0.581 1.922 0.389 0.752 1.014 1.665 1.873 2.739v0c0.818 1.022 1.53 1.805 2.136 2.35 0.615 0.546 1.183 0.883 1.703 1.012 0.52 0.129 1.037 0.089 1.552-0.119 0.519-0.202 1.079-0.544 1.681-1.026zM57.997 19.709l-5.76 2.319-5.993-14.884 5.538-2.23c1.331-0.536 2.454-0.612 3.368-0.228 0.914 0.384 1.625 1.208 2.134 2.472v0c0.251 0.623 0.377 1.195 0.379 1.716-0.004 0.524-0.104 0.995-0.302 1.411-0.198 0.416-0.473 0.756-0.825 1.02v0c0.316-0.034 0.658-0.029 1.027 0.016 0.367 0.039 0.741 0.149 1.122 0.333 0.382 0.183 0.738 0.455 1.07 0.815 0.329 0.355 0.61 0.822 0.843 1.401v0c0.419 1.042 0.577 1.931 0.473 2.668-0.098 0.734-0.414 1.356-0.947 1.864-0.531 0.514-1.24 0.95-2.127 1.307zM51.522 14.355l2.025 5.029 3.661-1.474c0.481-0.194 0.865-0.441 1.151-0.743 0.287-0.302 0.456-0.681 0.508-1.139 0.046-0.455-0.07-1.028-0.348-1.718v0c-0.201-0.499-0.48-0.881-0.837-1.146-0.36-0.271-0.757-0.43-1.191-0.477-0.428-0.05-0.864 0.015-1.308 0.194v0zM49.02 8.142l1.869 4.641 3.559-1.433c0.579-0.233 0.959-0.633 1.14-1.2 0.186-0.569 0.148-1.198-0.116-1.887v0c-0.322-0.888-0.749-1.425-1.282-1.611-0.525-0.183-1.089-0.152-1.693 0.091v0zM71.203 16.475l-2.265 0.187 4.021-16.433 2.771-0.229 6.666 15.549-2.284 0.189-1.757-4.075-6.118 0.506zM74.478 2.024l-1.878 8.135 5.056-0.418zM99.273 18.179l-5.969-1.154c-0.665-0.129-1.232-0.346-1.701-0.654-0.47-0.301-0.79-0.725-0.962-1.272-0.179-0.542-0.189-1.228-0.028-2.056v0l2.4-12.417 2.163 0.418-2.338 12.094c-0.088 0.457-0.079 0.827 0.028 1.112 0.109 0.278 0.282 0.484 0.52 0.618 0.245 0.135 0.517 0.232 0.817 0.29v0l5.45 1.054zM119.559 28.666v0c-0.295-0.215-0.587-0.469-0.876-0.762-0.288-0.293-0.52-0.634-0.695-1.025-0.179-0.386-0.233-0.824-0.162-1.316 0.067-0.486 0.319-1.029 0.758-1.63v0l5.622-7.705c0.376-0.515 0.772-0.889 1.187-1.12 0.414-0.241 0.827-0.367 1.239-0.379 0.406-0.016 0.804 0.048 1.193 0.192 0.385 0.149 0.735 0.339 1.052 0.57v0c0.754 0.567 1.445 1.091 2.072 1.574 0.623 0.488 1.2 0.942 1.732 1.363 0.537 0.425 1.048 0.835 1.533 1.229v0l-1.063 1.457-4.992-3.642c-0.435-0.317-0.858-0.453-1.269-0.408-0.407 0.04-0.787 0.301-1.14 0.784v0l-1.962 2.689 5.519 4.188-0.999 1.369-5.689-3.955-1.939 2.657c-0.29 0.397-0.44 0.744-0.451 1.041-0.011 0.296 0.068 0.56 0.238 0.79 0.164 0.226 0.369 0.43 0.616 0.61v0l4.959 3.619-1.069 1.465c-0.56-0.359-1.153-0.742-1.777-1.149-0.615-0.408-1.232-0.825-1.851-1.251-0.617-0.417-1.212-0.835-1.786-1.255zM134.622 44.081l-1.664-2.228 9.647-13.898 1.36 1.82-8.303 11.8 13.682-4.598 1.342 1.797zM142.514 59.223v0c-0.127-0.328-0.26-0.701-0.399-1.117-0.142-0.422-0.274-0.856-0.396-1.301-0.122-0.444-0.238-0.866-0.35-1.264-0.105-0.401-0.176-0.751-0.213-1.05v0l1.58-0.611c0.112 0.363 0.248 0.798 0.409 1.306 0.167 0.505 0.352 1.039 0.555 1.602 0.199 0.571 0.401 1.12 0.604 1.647v0c0.225 0.583 0.481 1.078 0.767 1.488 0.28 0.412 0.624 0.692 1.031 0.841 0.4 0.152 0.87 0.123 1.409-0.085v0l0.874-0.338c0.607-0.235 1.011-0.583 1.21-1.045 0.193-0.459 0.159-1.027-0.102-1.702v0l-0.59-1.524c-0.501-1.295-0.604-2.409-0.308-3.343 0.295-0.933 1.13-1.665 2.505-2.197v0l0.818-0.316c1.432-0.553 2.608-0.559 3.53-0.018 0.915 0.544 1.65 1.531 2.203 2.963v0c0.184 0.477 0.356 0.995 0.515 1.553 0.165 0.556 0.313 1.104 0.443 1.646 0.131 0.541 0.228 0.995 0.292 1.361v0l-1.581 0.611c-0.198-0.622-0.418-1.32-0.66-2.095-0.246-0.767-0.498-1.482-0.754-2.145v0c-0.22-0.57-0.472-1.036-0.754-1.397-0.291-0.365-0.64-0.597-1.048-0.695-0.415-0.096-0.92-0.029-1.515 0.2v0l-0.613 0.238c-0.725 0.28-1.155 0.671-1.289 1.171-0.132 0.507-0.062 1.11 0.208 1.811v0l0.636 1.645c0.331 0.855 0.446 1.615 0.347 2.281-0.103 0.674-0.371 1.251-0.805 1.732-0.436 0.475-1.001 0.846-1.695 1.114v0l-1.051 0.406c-1.06 0.41-1.959 0.508-2.696 0.295-0.732-0.216-1.344-0.649-1.838-1.299-0.491-0.644-0.917-1.433-1.279-2.369zM7.092 109.182v0c-0.351-0.961-0.47-1.814-0.357-2.557 0.106-0.741 0.423-1.405 0.949-1.991 0.518-0.59 1.241-1.129 2.169-1.615 0.921-0.485 2.025-0.953 3.31-1.404v0c1.267-0.444 2.413-0.758 3.44-0.942 1.023-0.175 1.924-0.185 2.704-0.029 0.788 0.16 1.464 0.532 2.028 1.116 0.572 0.588 1.042 1.405 1.409 2.453v0c0.209 0.596 0.396 1.188 0.56 1.778 0.161 0.599 0.293 1.186 0.396 1.763 0.097 0.578 0.177 1.128 0.24 1.648v0l-1.599 0.56c-0.053-0.291-0.148-0.694-0.286-1.209-0.13-0.511-0.281-1.074-0.455-1.689-0.18-0.613-0.378-1.23-0.596-1.85v0c-0.339-0.966-0.788-1.635-1.348-2.009-0.556-0.382-1.302-0.522-2.239-0.42-0.929 0.1-2.112 0.402-3.547 0.906v0c-1.147 0.402-2.078 0.792-2.791 1.168-0.713 0.377-1.246 0.764-1.599 1.163-0.345 0.402-0.535 0.853-0.572 1.352-0.028 0.503 0.073 1.083 0.305 1.741v0c0.224 0.64 0.521 1.246 0.891 1.821 0.37 0.574 0.708 1.054 1.012 1.44v0l4.045-1.417-1.191-3.396 1.59-0.557c0.141 0.261 0.29 0.578 0.449 0.951 0.163 0.365 0.329 0.758 0.498 1.178 0.166 0.413 0.324 0.833 0.473 1.26v0c0.136 0.389 0.254 0.745 0.354 1.069 0.102 0.33 0.183 0.633 0.244 0.907v0l-8.239 2.888-0.544-1.551 0.945-0.68c-0.392-0.376-0.853-0.898-1.383-1.564-0.529-0.666-0.951-1.427-1.265-2.282zM20.672 133.242l-3.551-4.996c-0.396-0.558-0.658-1.11-0.785-1.655-0.131-0.551-0.069-1.084 0.184-1.598 0.25-0.52 0.721-1.026 1.415-1.52v0l10.39-7.384 1.282 1.803-10.122 7.194c-0.385 0.273-0.633 0.548-0.747 0.825-0.115 0.285-0.133 0.559-0.053 0.82 0.084 0.267 0.214 0.525 0.391 0.773v0l3.245 4.566zM32.756 144.505v0c-0.825-0.66-1.485-1.319-1.979-1.977-0.498-0.654-0.781-1.364-0.848-2.132-0.072-0.772 0.129-1.662 0.603-2.67 0.469-1.012 1.251-2.203 2.346-3.573v0c1.095-1.37 2.087-2.398 2.975-3.083 0.883-0.689 1.717-1.09 2.504-1.201 0.781-0.115 1.547-0.009 2.298 0.319 0.75 0.328 1.538 0.821 2.363 1.481v0c0.846 0.676 1.514 1.346 2.004 2.01 0.49 0.664 0.759 1.386 0.808 2.165 0.049 0.779-0.163 1.677-0.635 2.694-0.473 1.017-1.257 2.211-2.353 3.581v0c-1.095 1.37-2.085 2.395-2.968 3.075-0.884 0.68-1.708 1.072-2.472 1.176-0.764 0.104-1.519-0.015-2.266-0.357-0.751-0.337-1.545-0.839-2.38-1.508zM33.988 142.964v0c0.592 0.473 1.147 0.815 1.667 1.027 0.515 0.207 1.037 0.246 1.566 0.116 0.524-0.134 1.098-0.475 1.723-1.022 0.62-0.542 1.341-1.327 2.163-2.354v0c0.867-1.085 1.502-2.002 1.905-2.751 0.399-0.744 0.605-1.384 0.616-1.919 0.016-0.531-0.137-1.02-0.461-1.466-0.329-0.45-0.789-0.912-1.381-1.385v0c-0.56-0.448-1.091-0.779-1.593-0.992-0.506-0.218-1.022-0.264-1.547-0.14-0.53 0.121-1.119 0.453-1.768 0.998-0.658 0.546-1.42 1.361-2.287 2.446v0c-0.821 1.028-1.431 1.901-1.828 2.622-0.401 0.725-0.607 1.361-0.617 1.905-0.015 0.541 0.137 1.041 0.458 1.502 0.316 0.456 0.777 0.927 1.384 1.413zM53.677 156.048l-5.797-2.332 6.035-15.007 5.576 2.242c1.344 0.54 2.214 1.27 2.611 2.189 0.399 0.913 0.342 2.007-0.171 3.283v0c-0.253 0.629-0.562 1.131-0.928 1.507-0.368 0.382-0.769 0.657-1.203 0.826-0.437 0.161-0.875 0.217-1.314 0.17v0c0.251 0.194 0.499 0.433 0.742 0.718 0.235 0.288 0.427 0.63 0.576 1.026 0.149 0.396 0.219 0.844 0.212 1.342-0.011 0.49-0.134 1.028-0.369 1.613v0c-0.419 1.042-0.923 1.795-1.511 2.261-0.588 0.465-1.255 0.698-2 0.699-0.739 0.004-1.559-0.176-2.459-0.537zM52.71 147.635l-2.041 5.076 3.689 1.484c0.487 0.196 0.94 0.281 1.358 0.256 0.422-0.016 0.812-0.175 1.169-0.476 0.355-0.294 0.672-0.79 0.952-1.486v0c0.201-0.499 0.263-0.975 0.188-1.428-0.072-0.444-0.248-0.834-0.529-1.169-0.287-0.337-0.652-0.595-1.096-0.774v0zM55.232 141.365l-1.886 4.688 3.588 1.443c0.579 0.233 1.138 0.207 1.675-0.078 0.529-0.282 0.938-0.765 1.228-1.451v0c0.385-0.869 0.451-1.559 0.198-2.068-0.256-0.504-0.689-0.879-1.299-1.124v0zM70.244 160.071l-2.274-0.187 6.709-15.678 2.791 0.229 4.058 16.564-2.295-0.189-1.073-4.338-6.168-0.507zM75.891 146.245l-3.209 7.776 5.095 0.419zM101.57 158.178l-6.017 1.165c-0.672 0.13-1.282 0.14-1.832 0.03-0.556-0.109-1.015-0.385-1.379-0.83-0.37-0.443-0.636-1.082-0.797-1.916v0l-2.424-12.515 2.173-0.42 2.36 12.191c0.09 0.463 0.237 0.803 0.442 1.021 0.212 0.223 0.454 0.352 0.725 0.388 0.277 0.034 0.566 0.022 0.866-0.036v0l5.499-1.065zM126.505 145.854v0c-0.295 0.215-0.629 0.417-1.001 0.606-0.367 0.185-0.766 0.303-1.197 0.354-0.426 0.047-0.862-0.038-1.308-0.255-0.446-0.218-0.888-0.627-1.327-1.228v0l-5.663-7.774c-0.379-0.521-0.62-1.015-0.723-1.483-0.097-0.472-0.088-0.906 0.027-1.302 0.105-0.397 0.29-0.758 0.555-1.082 0.256-0.326 0.545-0.606 0.867-0.841v0c0.776-0.549 1.494-1.047 2.154-1.495 0.656-0.453 1.269-0.871 1.837-1.253 0.578-0.38 1.13-0.745 1.656-1.095v0l1.074 1.474-5.043 3.674c-0.435 0.317-0.697 0.68-0.785 1.089-0.087 0.4 0.048 0.845 0.404 1.333v0l1.978 2.715 5.715-4.003 1.01 1.386-5.551 4.228 1.954 2.683c0.293 0.403 0.582 0.653 0.867 0.749 0.279 0.101 0.556 0.109 0.831 0.024 0.266-0.087 0.525-0.222 0.777-0.406v0l5.002-3.644 1.074 1.474c-0.524 0.431-1.075 0.882-1.653 1.353-0.582 0.465-1.171 0.931-1.768 1.398-0.595 0.458-1.183 0.899-1.763 1.321zM143.963 127.844l-1.677 2.243-16.188-5.366 1.368-1.827 13.778 4.658-8.351-11.912 1.355-1.811zM153.64 110.037v0c-0.127 0.328-0.281 0.696-0.46 1.104-0.179 0.408-0.375 0.82-0.586 1.237-0.209 0.411-0.408 0.804-0.596 1.18-0.195 0.374-0.379 0.683-0.553 0.93v0l-1.598-0.62c0.17-0.347 0.364-0.764 0.58-1.25 0.223-0.484 0.451-1.008 0.685-1.573 0.231-0.559 0.449-1.105 0.656-1.638v0c0.228-0.589 0.374-1.131 0.437-1.626 0.072-0.499 0.008-0.941-0.192-1.325-0.194-0.382-0.564-0.678-1.109-0.889v0l-0.883-0.342c-0.613-0.238-1.149-0.253-1.607-0.045-0.458 0.207-0.819 0.652-1.083 1.333v0l-0.594 1.533c-0.506 1.307-1.184 2.21-2.032 2.708-0.855 0.495-1.976 0.474-3.364-0.064v0l-0.818-0.317c-1.45-0.562-2.332-1.356-2.646-2.382-0.315-1.027-0.192-2.262 0.367-3.706v0c0.185-0.477 0.405-0.98 0.659-1.508 0.261-0.526 0.526-1.036 0.796-1.53 0.27-0.494 0.505-0.898 0.705-1.213v0l1.598 0.62c-0.281 0.597-0.591 1.267-0.929 2.012-0.342 0.737-0.643 1.44-0.903 2.109v0c-0.221 0.57-0.347 1.088-0.377 1.553-0.033 0.472 0.071 0.883 0.313 1.233 0.242 0.35 0.66 0.641 1.255 0.871v0l0.614 0.238c0.737 0.286 1.328 0.287 1.773 0.003 0.436-0.28 0.792-0.776 1.068-1.489v0l0.641-1.654c0.334-0.861 0.765-1.506 1.295-1.935 0.523-0.431 1.112-0.681 1.765-0.749 0.651-0.061 1.326 0.044 2.026 0.315v0l1.06 0.411c1.066 0.413 1.798 0.95 2.197 1.61 0.408 0.657 0.575 1.395 0.5 2.214-0.075 0.819-0.295 1.699-0.66 2.641zM2.098 82.447c0-3.413 2.766-6.179 6.179-6.179 3.413 0 6.179 2.766 6.179 6.179 0 3.413-2.766 6.179-6.179 6.179-3.413 0-6.179-2.766-6.179-6.179zM146.512 82.447c0-3.413 2.766-6.179 6.179-6.179 3.413 0 6.179 2.766 6.179 6.179 0 3.413-2.766 6.179-6.179 6.179-3.413 0-6.179-2.766-6.179-6.179z" fill="#ffffff" data-fill-palette-color="quaternary"></path></svg></g><g transform="matrix(1,0,0,1,0,170.948568312)"><svg viewBox="0 0 160.99884 11.350666128464582" height="11.350666128464582" width="160.99884"><g transform="matrix(1,0,0,1,0,0)"><svg width="160.99884" viewBox="2 -31.55 454.56 32.05" height="11.350666128464582" data-palette-color="#ffffff"><path d="M27.45-9.1L27.45-9.1Q27.45 0 16.15 0L16.15 0 2 0 2-31.05 15.95-31.05Q21.55-31.05 24.23-29.05 26.9-27.05 26.9-22.9 26.9-18.75 23.4-16.5L23.4-16.5 23.4-16.3Q27.45-14.45 27.45-9.1ZM14.1-6.2Q15.45-6.2 15.9-6.78 16.35-7.35 16.35-9.2 16.35-11.05 15.88-11.83 15.4-12.6 14.1-12.6L14.1-12.6 12.65-12.6 12.65-6.2 14.1-6.2ZM14.15-18.1Q15.05-18.1 15.48-18.7 15.9-19.3 15.9-20.78 15.9-22.25 15.48-22.9 15.05-23.55 14.1-23.55L14.1-23.55 12.65-23.55 12.65-18.1 14.15-18.1ZM29.15-15.73Q29.15-24.05 32.47-27.8 35.8-31.55 43.42-31.55 51.05-31.55 54.32-27.85 57.6-24.15 57.6-15.83 57.6-7.5 54.22-3.5 50.85 0.5 43.32 0.5 35.8 0.5 32.47-3.45 29.15-7.4 29.15-15.73ZM46.2-21.68Q45.55-22.95 43.4-22.95 41.25-22.95 40.65-21.7 40.05-20.45 40.05-16.35L40.05-16.35 40.05-14.15Q40.05-9.95 40.7-8.7 41.35-7.45 43.55-7.45 45.75-7.45 46.3-8.65 46.85-9.85 46.85-14L46.85-14 46.85-16.3Q46.85-20.4 46.2-21.68ZM85.15-21.05L85.15-21.05Q85.15-18.05 84.17-16.28 83.2-14.5 81.15-13.15L81.15-13.15 85.8 0 74.75 0 71.65-10.7 70.84-10.7 70.84 0 60.6 0 60.6-31.05 73.84-31.05Q79.65-31.05 82.4-28.63 85.15-26.2 85.15-21.05ZM71.9-16.8Q73.05-16.8 73.52-17.48 74-18.15 74-19.85 74-21.55 73.5-22.2 73-22.85 71.95-22.85L71.95-22.85 70.65-22.85 70.65-16.8 71.9-16.8ZM113.29-21.05L113.29-21.05Q113.29-18.05 112.32-16.28 111.34-14.5 109.29-13.15L109.29-13.15 113.94 0 102.89 0 99.79-10.7 98.99-10.7 98.99 0 88.74 0 88.74-31.05 101.99-31.05Q107.79-31.05 110.54-28.63 113.29-26.2 113.29-21.05ZM100.04-16.8Q101.19-16.8 101.67-17.48 102.14-18.15 102.14-19.85 102.14-21.55 101.64-22.2 101.14-22.85 100.09-22.85L100.09-22.85 98.79-22.85 98.79-16.8 100.04-16.8ZM115.89-15.73Q115.89-24.05 119.22-27.8 122.54-31.55 130.17-31.55 137.79-31.55 141.07-27.85 144.34-24.15 144.34-15.83 144.34-7.5 140.97-3.5 137.59 0.5 130.07 0.5 122.54 0.5 119.22-3.45 115.89-7.4 115.89-15.73ZM132.94-21.68Q132.29-22.95 130.14-22.95 127.99-22.95 127.39-21.7 126.79-20.45 126.79-16.35L126.79-16.35 126.79-14.15Q126.79-9.95 127.44-8.7 128.09-7.45 130.29-7.45 132.49-7.45 133.04-8.65 133.59-9.85 133.59-14L133.59-14 133.59-16.3Q133.59-20.4 132.94-21.68ZM172.59-31.05L182.04-31.05 178.74 0 166.84 0 164.49-12.6 164.09-12.6 162.09 0 150.19 0 146.34-31.05 156.14-31.05 157.39-16.8 157.84-16.8 159.74-31.05 169.19-31.05 171.29-16.8 171.64-16.8 172.59-31.05ZM227.18-31.05L228.33 0 218.88 0 218.88-14.8 218.63-14.8 215.68 0 206.93 0 204.03-14.8 203.78-14.8 203.78 0 194.43 0 195.63-31.05 208.93-31.05 211.28-17 211.73-17 214.03-31.05 227.18-31.05ZM246.08-31.05L257.03-31.05 248.83-9.85 248.83 0 238.18 0 238.18-9.9 230.23-31.05 241.48-31.05 243.68-19.65 243.98-19.65 246.08-31.05ZM278.33-15.15Q278.33-11.35 279.18-9.63 280.03-7.9 282.03-7.9 284.03-7.9 288.68-9L288.68-9 290.28-1.05Q285.38 0.5 280.83 0.5L280.83 0.5Q273.88 0.5 270.7-3.48 267.53-7.45 267.53-15.33 267.53-23.2 270.83-27.38 274.13-31.55 281.58-31.55L281.58-31.55Q285.93-31.55 290.28-29.85L290.28-29.85 288.63-20.95Q283.68-22.4 281.85-22.4 280.03-22.4 279.18-20.68 278.33-18.95 278.33-15.15ZM318.42-31.05L318.42 0 307.87 0 307.87-10.95 302.47-10.95 302.47 0 291.77 0 291.77-31.05 302.47-31.05 302.47-19.45 307.87-19.45 307.87-31.05 318.42-31.05ZM342.12-31.05L348.57 0 338.07 0 337.07-4.8 331.52-4.8 330.47 0 320.42 0 326.87-31.05 342.12-31.05ZM332.27-11.25L336.32-11.25 334.42-21.65 334.22-21.65 332.27-11.25ZM375.12-21.05L375.12-21.05Q375.12-18.05 374.14-16.28 373.17-14.5 371.12-13.15L371.12-13.15 375.77 0 364.72 0 361.62-10.7 360.82-10.7 360.82 0 350.57 0 350.57-31.05 363.82-31.05Q369.62-31.05 372.37-28.63 375.12-26.2 375.12-21.05ZM361.87-16.8Q363.02-16.8 363.49-17.48 363.97-18.15 363.97-19.85 363.97-21.55 363.47-22.2 362.97-22.85 361.92-22.85L361.92-22.85 360.62-22.85 360.62-16.8 361.87-16.8ZM392.41-7.65L392.41-7.65Q393.31-7.65 394.81-7.95L394.81-7.95 394.81-10.95 392.31-10.95 392.31-17.85 404.11-17.85 404.11 0 396.56 0 395.81-1.6 395.61-1.6Q393.01 0.5 389.46 0.5L389.46 0.5Q377.76 0.5 377.76-15.3L377.76-15.3Q377.76-23.2 380.94-27.38 384.11-31.55 391.66-31.55L391.66-31.55Q397.26-31.55 402.26-30L402.26-30 400.61-20.6Q395.01-22.15 392.59-22.15 390.16-22.15 389.39-20.55 388.61-18.95 388.61-15.1 388.61-11.25 389.34-9.45 390.06-7.65 392.41-7.65ZM428.81-7.6L428.11 0 408.31 0 408.31-31.05 428.81-31.05 428.11-22.8 419.01-22.8 419.01-19.05 426.96-19.05 426.96-11.85 419.01-11.85 419.01-7.6 428.81-7.6ZM455.91-21.05L455.91-21.05Q455.91-18.05 454.94-16.28 453.96-14.5 451.91-13.15L451.91-13.15 456.56 0 445.51 0 442.41-10.7 441.61-10.7 441.61 0 431.36 0 431.36-31.05 444.61-31.05Q450.41-31.05 453.16-28.63 455.91-26.2 455.91-21.05ZM442.66-16.8Q443.81-16.8 444.29-17.48 444.76-18.15 444.76-19.85 444.76-21.55 444.26-22.2 443.76-22.85 442.71-22.85L442.71-22.85 441.41-22.85 441.41-16.8 442.66-16.8Z" opacity="1" transform="matrix(1,0,0,1,0,0)" fill="#ffffff" class="undefined-text-1" data-fill-palette-color="quaternary" id="text-1"></path></svg></g></svg></g></svg></g></svg></g><g></g></svg></g></svg></g></svg></g></svg><rect width="576" height="360" fill="none" stroke="none" visibility="hidden"></rect></g></svg></g></svg>